<svg width="212" height="37" viewBox="0 0 212 37" fill="none" xmlns="http://www.w3.org/2000/svg">
<path d="M9.28171 28.3857C10.4177 27.2507 10.9848 25.6714 10.8286 24.0784L10.8567 24.1049C10.6973 22.2295 11.3784 20.3797 12.7183 19.0491C14.0581 17.7186 15.9204 17.0427 17.8081 17.2019L17.78 17.1754C20.0643 17.388 22.2375 16.1548 23.2135 14.092C24.1896 12.0291 23.7587 9.57982 22.1364 7.96809C20.5141 6.35636 18.0486 5.92835 15.9722 6.89798C13.8958 7.86761 12.6544 10.0266 12.8684 12.296L12.8418 12.2696C13.0011 14.1444 12.3203 15.9936 10.9812 17.3241C9.64198 18.6545 7.78054 19.3308 5.89336 19.1725L5.92001 19.199C3.40888 18.9752 1.07266 20.4968 0.277732 22.8738C-0.517197 25.2507 0.437973 27.8587 2.58459 29.1724C4.73121 30.486 7.50542 30.1603 9.28467 28.3857H9.28171Z" fill="#5454D4"/>
<path d="M41.5725 23.5676L41.5443 23.5412C43.149 23.7018 44.7415 23.1381 45.8823 22.0055C47.0232 20.873 47.5919 19.2914 47.4314 17.697L47.4595 17.7235C47.3002 15.8487 47.9809 13.9994 49.3201 12.669C50.6593 11.3386 52.5207 10.6623 54.4079 10.8206L54.3798 10.7941C56.6649 11.0073 58.8392 9.77391 59.8158 7.71044C60.7924 5.64698 60.3616 3.19669 58.7386 1.58436C57.1157 -0.0279647 54.6492 -0.455996 52.5722 0.514223C50.4951 1.48444 49.2536 3.64451 49.4682 5.9147L49.4416 5.88675C49.6014 7.76172 48.9209 9.61129 47.5816 10.9418C46.2422 12.2724 44.3805 12.9485 42.4932 12.7897L42.5198 12.8176C40.9151 12.657 39.3227 13.2207 38.1818 14.3533C37.041 15.4858 36.4723 17.0674 36.6328 18.6618L36.6061 18.6353C36.7649 20.51 36.084 22.3589 34.745 23.6892C33.4059 25.0195 31.5448 25.696 29.6577 25.5382L29.6844 25.5647C27.3993 25.3515 25.225 26.5849 24.2484 28.6484C23.2717 30.7118 23.7026 33.1621 25.3255 34.7744C26.9485 36.3868 29.4149 36.8148 31.492 35.8446C33.569 34.8744 34.8105 32.7143 34.5959 30.4441L34.6241 30.4706C34.4648 28.5957 35.1455 26.7465 36.4847 25.4161C37.8238 24.0856 39.6853 23.4094 41.5725 23.5676V23.5676Z" fill="#FF7143"/>
<path d="M74.7794 7.9714C73.6436 9.10664 73.076 10.6856 73.231 12.2788L73.2044 12.2523C73.3637 14.1271 72.6829 15.9764 71.3437 17.3068C70.0046 18.6372 68.1431 19.3135 66.256 19.1552L66.2826 19.1817C63.9977 18.9704 61.8247 20.2052 60.8496 22.2689C59.8744 24.3326 60.3066 26.7822 61.93 28.3936C63.5534 30.0049 66.0195 30.432 68.096 29.4614C70.1724 28.4908 71.4133 26.3309 71.1986 24.0611L71.2267 24.0876C71.0674 22.2127 71.7481 20.3635 73.0873 19.0331C74.4265 17.7026 76.2879 17.0264 78.1751 17.1846L78.147 17.1582C80.6582 17.3825 82.9949 15.8613 83.7903 13.4844C84.5857 11.1074 83.6308 8.49915 81.4842 7.18519C79.3376 5.87122 76.5632 6.19677 74.7838 7.9714H74.7794Z" fill="#5454D4"/>
<path d="M84.0684 7.55225H88.4648V28.8067H84.0684V7.55225Z" fill="#19191B"/>
<path fill-rule="evenodd" clip-rule="evenodd" d="M93.238 11.0594C90.3367 12.2634 88.4524 15.0865 88.465 18.2102C88.4497 20.2584 89.2641 22.2267 90.725 23.6722C92.1858 25.1176 94.1703 25.9188 96.232 25.8955C99.3762 25.8954 102.21 24.0121 103.411 21.125C104.611 18.2378 103.941 14.9166 101.713 12.7122C99.4852 10.5078 96.1394 9.85532 93.238 11.0594ZM96.1695 14.9533C98.0194 14.9194 99.5513 16.3727 99.6025 18.2101C99.6524 19.121 99.3167 20.0111 98.6764 20.6651C98.0362 21.319 97.1498 21.6771 96.2319 21.6528C94.3817 21.6529 92.877 20.1718 92.8598 18.3338C92.8427 16.4957 94.3196 14.9873 96.1695 14.9533Z" fill="#19191B"/>
<path fill-rule="evenodd" clip-rule="evenodd" d="M119.771 21.8095V7.98595L115.491 7.98301V9.46831C114.447 8.19929 112.859 7.4971 111.212 7.57566C107.192 7.7016 103.999 10.9752 103.999 14.9705C103.999 18.9658 107.192 22.2394 111.212 22.3654C112.859 22.4439 114.447 21.7417 115.491 20.4727V21.8036C115.565 22.6817 115.233 23.5454 114.589 24.1512C113.945 24.757 113.058 25.0392 112.18 24.9183C110.79 25.0592 109.458 24.3283 108.839 23.0845L105.088 25.2389C106.555 27.6143 109.236 28.9763 112.033 28.7683C115.931 28.7683 119.771 26.7007 119.771 21.8095ZM113.403 11.6083C114.726 12.2008 115.553 13.5326 115.493 14.9727C115.52 15.9025 115.15 16.8005 114.475 17.4449C113.8 18.0892 112.881 18.4198 111.947 18.3551C110.497 18.3568 109.19 17.482 108.648 16.1452C108.106 14.8085 108.436 13.2783 109.482 12.28C110.529 11.2817 112.081 11.0157 113.403 11.6083Z" fill="#19191B"/>
<path fill-rule="evenodd" clip-rule="evenodd" d="M124.544 11.0594C121.643 12.2634 119.758 15.0865 119.771 18.2102C119.756 20.2584 120.57 22.2267 122.031 23.6722C123.492 25.1176 125.476 25.9188 127.538 25.8955C130.682 25.8954 133.516 24.0121 134.716 21.125C135.917 18.2378 135.247 14.9166 133.019 12.7122C130.791 10.5078 127.445 9.85532 124.544 11.0594ZM127.475 14.9533C129.325 14.9194 130.857 16.3727 130.908 18.2101C130.958 19.121 130.622 20.0111 129.982 20.6651C129.342 21.319 128.456 21.6771 127.538 21.6528C125.687 21.6529 124.183 20.1718 124.166 18.3338C124.148 16.4957 125.625 14.9873 127.475 14.9533Z" fill="#19191B"/>
<path fill-rule="evenodd" clip-rule="evenodd" d="M136.933 7.83847C135.948 8.24409 135.305 9.19965 135.305 10.2596C135.319 11.7009 136.492 12.8658 137.943 12.8802C139.01 12.8802 139.972 12.2417 140.38 11.2624C140.788 10.2832 140.562 9.15603 139.808 8.40655C139.054 7.65706 137.919 7.43286 136.933 7.83847ZM140.147 14.161H135.749L135.743 28.7198H140.147V14.161Z" fill="#19191B"/>
<path fill-rule="evenodd" clip-rule="evenodd" d="M154.453 20.7658C155.768 19.3233 156.45 17.4195 156.347 15.4761C156.45 13.5324 155.769 11.6281 154.454 10.1851C153.139 8.74216 151.3 7.87987 149.342 7.78938C147.693 7.7 146.09 8.35167 144.977 9.56438V8.19673H140.581V28.5776H144.977V21.385C146.09 22.5986 147.693 23.2509 149.342 23.1614C151.299 23.0705 153.139 22.2083 154.453 20.7658ZM148.406 12.0986C150.32 12.0668 151.903 13.5744 151.951 15.4761C152.017 16.4212 151.674 17.3494 151.008 18.0277C150.343 18.7059 149.417 19.0697 148.465 19.0276C146.55 19.0278 144.993 17.4942 144.977 15.592C144.961 13.6898 146.491 12.1305 148.406 12.0986Z" fill="#19191B"/>
<path d="M168.753 21.079C168.753 24.4275 165.824 25.854 162.659 25.854C160.042 26.0895 157.546 24.7168 156.357 22.3893L160.166 20.2349C160.484 21.3184 161.52 22.0343 162.653 21.9525C163.707 21.9525 164.235 21.632 164.235 21.0511C164.235 19.4481 157.025 20.2937 157.025 15.257C157.025 12.082 159.722 10.482 162.77 10.482C165.103 10.4086 167.292 11.6019 168.484 13.5967L164.733 15.6055C164.396 14.8259 163.624 14.3216 162.77 14.3246C162.007 14.3246 161.538 14.6187 161.538 15.1393C161.544 16.7996 168.753 15.6923 168.753 21.079Z" fill="#19191B"/>
<path d="M182.816 10.6904V25.2493H178.419V23.8801C177.391 25.1056 175.833 25.7664 174.23 25.6566C171.27 25.6566 168.753 23.561 168.753 19.6272V10.6904H173.15V18.9875C173.075 19.6893 173.315 20.3881 173.806 20.898C174.297 21.408 174.99 21.6773 175.699 21.6345C177.311 21.6345 178.424 20.7037 178.424 18.636V10.6948L182.816 10.6904Z" fill="#19191B"/>
<path d="M204.796 16.7315V25.6698H200.4V17.1095C200.4 15.6536 199.697 14.7227 198.29 14.7227C196.825 14.7227 196.003 15.7418 196.003 17.4595V25.6698H191.609V17.1095C191.609 15.6536 190.905 14.7227 189.498 14.7227C188.032 14.7227 187.212 15.7418 187.212 17.4595V25.6698H182.816V11.1109H187.212V12.4492C188.138 11.2428 189.617 10.5855 191.139 10.7036C192.67 10.6292 194.127 11.3584 194.978 12.6242C195.968 11.3009 197.573 10.5756 199.227 10.7036C202.592 10.7051 204.796 13.0918 204.796 16.7315Z" fill="#19191B"/>
<path d="M208.059 21.4206C209.861 21.4206 211.321 19.9695 211.321 18.1794C211.321 16.3894 209.861 14.9382 208.059 14.9382C206.257 14.9382 204.796 16.3894 204.796 18.1794C204.796 19.9695 206.257 21.4206 208.059 21.4206Z" fill="#19191B"/>
</svg>
